Exact Audio Copy V0.99 prebeta 4 from 23. January 2008

EAC 抓取日志文件从6. 十一月 2012, 16:16

黎信昌 / 名人百集

使用驱动器  ：TEAC    CD-W540E   Adapter: 3  ID: 0

读取模式     : 保护
使用精确流   : 是
废除音频缓冲 : 是
使用 C2 指针 : 是

读取偏移校正                   : 686
读取 Lead-In 和 Lead-Out       : 否
用静音填充抓取中丢失偏移的采样 : 是
去除首尾静音块                 : 否
在 CRC 计算中使用了空样本      : 是
已用接口                       : Win NT 及 2000 本地 Win32 接口

所用输出格式 : 内部 WAV 函数
样本格式     : 44.100 Hz;16 Bit;立体声


被抓轨 CD 的 TOC

     音轨 |   开始   |   长度   | 起始扇区 | 结尾扇区 
    --------------------------------------------------
       1  |  0:00.00 |  2:41.52 |       0  |   12126  
       2  |  2:41.52 |  2:00.08 |   12127  |   21134  
       3  |  4:41.60 |  2:15.70 |   21135  |   31329  
       4  |  6:57.55 |  3:50.02 |   31330  |   48581  
       5  | 10:47.57 |  3:24.13 |   48582  |   63894  
       6  | 14:11.70 |  4:19.42 |   63895  |   83361  
       7  | 18:31.37 |  3:14.05 |   83362  |   97916  
       8  | 21:45.42 |  3:38.68 |   97917  |  114334  
       9  | 25:24.35 |  4:10.45 |  114335  |  133129  
      10  | 29:35.05 |  4:47.10 |  133130  |  154664  
      11  | 34:22.15 |  4:41.47 |  154665  |  175786  
      12  | 39:03.62 |  2:31.18 |  175787  |  187129  
      13  | 41:35.05 |  2:33.12 |  187130  |  198616  
      14  | 44:08.17 |  3:26.05 |  198617  |  214071  
      15  | 47:34.22 |  3:58.70 |  214072  |  231991  
      16  | 51:33.17 |  6:22.35 |  231992  |  260676  


范围状态及错误

已选择范围

     文件名 E:\行板如歌原抓\名人百集 - 黎信昌.wav

     峰值电平 100.0 %
     范围质量 100.0 %
     复制 CRC BD4C8D5B
     复制成功

没有错误发生

 
AccurateRip 概要
 
音轨  1  数据库中未见
音轨  2  数据库中未见
音轨  3  数据库中未见
音轨  4  数据库中未见
音轨  5  数据库中未见
音轨  6  数据库中未见
音轨  7  数据库中未见
音轨  8  数据库中未见
音轨  9  数据库中未见
音轨 10  数据库中未见
音轨 11  数据库中未见
音轨 12  数据库中未见
音轨 13  数据库中未见
音轨 14  数据库中未见
音轨 15  数据库中未见
音轨 16  数据库中未见
 
没有任何音轨出现在 AccurateRip 数据库中

状态报告结尾
